<svg width="96" height="96" xmlns="http://www.w3.org/2000/svg" xmlns:xlink="http://www.w3.org/1999/xlink" xml:space="preserve" overflow="hidden"><g transform="translate(-113 -330)"><path d="M142 356C143.7 356 145 354.7 145 353L145 347C145 345.3 143.7 344 142 344 140.3 344 139 345.3 139 347L139 353C139 354.7 140.3 356 142 356Z"/><path d="M133 398 149 398 149 406 133 406 133 398ZM133 386 149 386 149 394 133 394 133 386ZM133 374 149 374 149 382 133 382 133 374ZM169 374 169 382 153 382 153 374 169 374ZM189 374 189 382 173 382 173 374 189 374ZM189 394 173 394 173 386 189 386 189 394ZM189 406 173 406 173 398 189 398 189 406ZM153 394 153 386 169 386 169 394 153 394ZM153 406 153 398 169 398 169 406 153 406ZM127 412 195 412 195 368 127 368 127 412Z"/><path d="M180 356C181.7 356 183 354.7 183 353L183 347C183 345.3 181.7 344 180 344 178.3 344 177 345.3 177 347L177 353C177 354.7 178.3 356 180 356Z"/><path d="M187 350 187 353C187 356.9 183.9 360 180 360 176.1 360 173 356.9 173 353L173 350 149 350 149 353C149 356.9 145.9 360 142 360 138.1 360 135 356.9 135 353L135 350 127 350 127 364 195 364 195 350 187 350Z"/></g></svg>