<?xml version="1.0" encoding="UTF-8"?>
<svg id="Capa_2" data-name="Capa 2" xmlns="http://www.w3.org/2000/svg" viewBox="0 0 141.73 40.11">
  <defs>
    <style>
      .cls-1 {
        fill: #CCFF66;
        stroke-width:2px;
      }
    </style>
  </defs>
  <g id="Capa_1-2" data-name="Capa 1">
    <g>
      <g>
        <path class="cls-1" d="M1.14,40.06v-2.61H.11v-.61h2.8v.61h-1.03v2.61h-.74Z"/>
        <path class="cls-1" d="M4.05,39.46h1.75v.6h-2.49v-3.21h2.43v.6h-1.69v2.02ZM4,38.14h1.55v.58h-1.55v-.58Z"/>
        <path class="cls-1" d="M7.94,40.11c-.25,0-.48-.04-.69-.12-.21-.08-.4-.2-.55-.35-.16-.15-.28-.33-.37-.53s-.13-.42-.13-.67.04-.46.13-.67.21-.38.37-.53c.16-.15.34-.27.55-.35.21-.08.44-.12.69-.12.28,0,.53.05.76.14.23.1.41.24.57.42l-.48.44c-.11-.13-.23-.22-.37-.28-.13-.06-.28-.09-.44-.09-.15,0-.29.02-.41.07-.13.05-.23.12-.33.21s-.16.2-.21.33c-.05.13-.08.26-.08.42s.03.29.08.42c.05.13.12.23.21.33.09.09.2.16.33.21.13.05.26.07.41.07.16,0,.31-.03.44-.09.13-.06.26-.16.37-.29l.48.44c-.15.19-.34.33-.57.43s-.48.15-.76.15Z"/>
        <path class="cls-1" d="M9.77,40.06v-3.21h.62l1.9,2.31h-.3v-2.31h.74v3.21h-.61l-1.9-2.31h.3v2.31h-.74Z"/>
        <path class="cls-1" d="M15.04,40.11c-.25,0-.49-.04-.71-.12-.22-.08-.4-.2-.56-.35-.16-.15-.28-.33-.37-.53s-.13-.42-.13-.66.04-.46.13-.66.21-.38.37-.53c.16-.15.35-.27.56-.35.21-.08.45-.12.7-.12s.49.04.7.12c.21.08.4.2.56.35.16.15.28.33.37.53.09.2.13.42.13.66s-.04.46-.13.66c-.09.2-.21.38-.37.53-.16.15-.34.26-.56.35-.21.08-.45.12-.7.12ZM15.04,39.48c.14,0,.28-.02.4-.07.12-.05.23-.12.32-.21.09-.09.16-.2.21-.33.05-.13.08-.26.08-.42s-.03-.29-.08-.42c-.05-.13-.12-.23-.21-.33-.09-.09-.2-.16-.32-.21-.12-.05-.26-.07-.4-.07s-.28.02-.4.07c-.12.05-.23.12-.32.21s-.16.2-.21.33c-.05.13-.08.26-.08.42s.03.29.08.42c.05.13.12.24.21.33.09.09.2.16.32.21.12.05.26.07.4.07Z"/>
        <path class="cls-1" d="M17.36,40.06v-3.21h.74v2.61h1.61v.61h-2.36Z"/>
        <path class="cls-1" d="M21.65,40.11c-.25,0-.49-.04-.71-.12-.22-.08-.4-.2-.56-.35-.16-.15-.28-.33-.37-.53s-.13-.42-.13-.66.04-.46.13-.66.21-.38.37-.53c.16-.15.35-.27.56-.35.21-.08.45-.12.7-.12s.49.04.7.12c.21.08.4.2.56.35.16.15.28.33.37.53.09.2.13.42.13.66s-.04.46-.13.66c-.09.2-.21.38-.37.53-.16.15-.34.26-.56.35-.21.08-.45.12-.7.12ZM21.64,39.48c.14,0,.28-.02.4-.07.12-.05.23-.12.32-.21.09-.09.16-.2.21-.33.05-.13.08-.26.08-.42s-.03-.29-.08-.42c-.05-.13-.12-.23-.21-.33-.09-.09-.2-.16-.32-.21-.12-.05-.26-.07-.4-.07s-.28.02-.4.07c-.12.05-.23.12-.32.21s-.16.2-.21.33c-.05.13-.08.26-.08.42s.03.29.08.42c.05.13.12.24.21.33.09.09.2.16.32.21.12.05.26.07.4.07Z"/>
        <path class="cls-1" d="M25.52,40.11c-.25,0-.49-.04-.7-.12-.21-.08-.4-.2-.56-.35-.16-.15-.28-.33-.37-.53s-.13-.42-.13-.67.04-.46.13-.67.21-.38.37-.53c.16-.15.35-.27.56-.35.21-.08.45-.12.71-.12.29,0,.54.05.77.14.23.09.42.23.58.41l-.48.44c-.12-.12-.24-.21-.38-.27-.14-.06-.29-.09-.45-.09s-.3.02-.43.07c-.13.05-.24.12-.33.21-.09.09-.17.2-.22.33-.05.13-.08.26-.08.42s.03.29.08.41c.05.13.12.23.22.33.09.09.2.16.33.21.13.05.27.07.42.07s.29-.02.43-.07c.14-.05.28-.13.41-.24l.42.54c-.17.13-.38.23-.61.3-.23.07-.46.11-.69.11ZM26.14,39.61v-1.21h.68v1.3l-.68-.1Z"/>
        <path class="cls-1" d="M27.46,36.58l.62-.66h.77l-.83.66h-.56ZM27.51,40.06v-3.21h.74v3.21h-.74Z"/>
        <path class="cls-1" d="M28.59,40.06l1.43-3.21h.74l1.44,3.21h-.78l-1.18-2.84h.29l-1.18,2.84h-.76ZM29.31,39.37l.2-.56h1.66l.2.56h-2.06Z"/>
        <path class="cls-1" d="M34.58,39.46h1.75v.6h-2.49v-3.21h2.43v.6h-1.69v2.02ZM34.52,38.14h1.55v.58h-1.55v-.58Z"/>
        <path class="cls-1" d="M36.92,40.06v-3.21h.62l1.9,2.31h-.3v-2.31h.74v3.21h-.61l-1.9-2.31h.3v2.31h-.74Z"/>
        <path class="cls-1" d="M41.38,39.46h1.75v.6h-2.49v-3.21h2.43v.6h-1.69v2.02ZM41.32,38.14h1.55v.58h-1.55v-.58Z"/>
        <path class="cls-1" d="M43.72,40.06v-3.21h1.39c.29,0,.54.05.74.14.21.09.37.23.48.4.11.17.17.38.17.62s-.06.44-.17.62c-.11.17-.27.31-.48.4-.21.09-.46.14-.74.14h-.98l.33-.33v1.22h-.74ZM44.47,38.92l-.33-.35h.94c.23,0,.4-.05.51-.15.11-.1.17-.24.17-.41s-.06-.32-.17-.41c-.11-.1-.29-.15-.51-.15h-.94l.33-.35v1.82ZM45.77,40.06l-.8-1.17h.8l.81,1.17h-.8Z"/>
        <path class="cls-1" d="M48.66,40.11c-.25,0-.49-.04-.7-.12-.21-.08-.4-.2-.56-.35-.16-.15-.28-.33-.37-.53s-.13-.42-.13-.67.04-.46.13-.67.21-.38.37-.53c.16-.15.35-.27.56-.35.21-.08.45-.12.71-.12.29,0,.54.05.77.14.23.09.42.23.58.41l-.48.44c-.12-.12-.24-.21-.38-.27-.14-.06-.29-.09-.45-.09s-.3.02-.43.07c-.13.05-.24.12-.33.21-.09.09-.17.2-.22.33-.05.13-.08.26-.08.42s.03.29.08.41c.05.13.12.23.22.33.09.09.2.16.33.21.13.05.27.07.42.07s.29-.02.43-.07c.14-.05.28-.13.41-.24l.42.54c-.17.13-.38.23-.61.3-.23.07-.46.11-.69.11ZM49.28,39.61v-1.21h.68v1.3l-.68-.1Z"/>
        <path class="cls-1" d="M51.39,39.46h1.75v.6h-2.49v-3.21h2.43v.6h-1.69v2.02ZM51.33,38.14h1.55v.58h-1.55v-.58ZM51.45,36.58l.62-.66h.77l-.83.66h-.56Z"/>
        <path class="cls-1" d="M54.4,40.06v-2.61h-1.03v-.61h2.8v.61h-1.03v2.61h-.74Z"/>
        <path class="cls-1" d="M56.57,40.06v-3.21h.74v3.21h-.74Z"/>
        <path class="cls-1" d="M59.62,40.11c-.25,0-.48-.04-.69-.12-.21-.08-.4-.2-.55-.35-.16-.15-.28-.33-.37-.53s-.13-.42-.13-.67.04-.46.13-.67.21-.38.37-.53c.16-.15.34-.27.55-.35.21-.08.44-.12.69-.12.28,0,.53.05.76.14.23.1.41.24.57.42l-.48.44c-.11-.13-.23-.22-.37-.28-.13-.06-.28-.09-.44-.09-.15,0-.29.02-.41.07-.13.05-.23.12-.33.21s-.16.2-.21.33c-.05.13-.08.26-.08.42s.03.29.08.42c.05.13.12.23.21.33.09.09.2.16.33.21.13.05.26.07.41.07.16,0,.31-.03.44-.09.13-.06.26-.16.37-.29l.48.44c-.15.19-.34.33-.57.43s-.48.15-.76.15Z"/>
        <path class="cls-1" d="M60.96,40.06l1.43-3.21h.74l1.44,3.21h-.78l-1.18-2.84h.29l-1.18,2.84h-.76ZM61.68,39.37l.2-.56h1.66l.2.56h-2.06Z"/>
        <path class="cls-1" d="M67.75,40.11c-.25,0-.48-.04-.69-.12-.21-.08-.4-.2-.55-.35-.16-.15-.28-.33-.37-.53s-.13-.42-.13-.67.04-.46.13-.67.21-.38.37-.53c.16-.15.34-.27.55-.35.21-.08.44-.12.69-.12.28,0,.53.05.76.14.23.1.41.24.57.42l-.48.44c-.11-.13-.23-.22-.37-.28-.13-.06-.28-.09-.44-.09-.15,0-.29.02-.41.07-.13.05-.23.12-.33.21s-.16.2-.21.33c-.05.13-.08.26-.08.42s.03.29.08.42c.05.13.12.23.21.33.09.09.2.16.33.21.13.05.26.07.41.07.16,0,.31-.03.44-.09.13-.06.26-.16.37-.29l.48.44c-.15.19-.34.33-.57.43s-.48.15-.76.15Z"/>
        <path class="cls-1" d="M71.07,40.11c-.25,0-.49-.04-.71-.12-.22-.08-.4-.2-.56-.35-.16-.15-.28-.33-.37-.53s-.13-.42-.13-.66.04-.46.13-.66.21-.38.37-.53c.16-.15.35-.27.56-.35.21-.08.45-.12.7-.12s.49.04.7.12c.21.08.4.2.56.35.16.15.28.33.37.53.09.2.13.42.13.66s-.04.46-.13.66c-.09.2-.21.38-.37.53-.16.15-.34.26-.56.35-.21.08-.45.12-.7.12ZM71.07,39.48c.14,0,.28-.02.4-.07.12-.05.23-.12.32-.21.09-.09.16-.2.21-.33.05-.13.08-.26.08-.42s-.03-.29-.08-.42c-.05-.13-.12-.23-.21-.33-.09-.09-.2-.16-.32-.21-.12-.05-.26-.07-.4-.07s-.28.02-.4.07c-.12.05-.23.12-.32.21s-.16.2-.21.33c-.05.13-.08.26-.08.42s.03.29.08.42c.05.13.12.24.21.33.09.09.2.16.32.21.12.05.26.07.4.07Z"/>
        <path class="cls-1" d="M73.39,40.06v-3.21h.62l1.9,2.31h-.3v-2.31h.74v3.21h-.61l-1.9-2.31h.3v2.31h-.74Z"/>
        <path class="cls-1" d="M77.85,39.46h1.75v.6h-2.49v-3.21h2.43v.6h-1.69v2.02ZM77.79,38.14h1.55v.58h-1.55v-.58Z"/>
        <path class="cls-1" d="M81.73,40.11c-.25,0-.48-.04-.69-.12-.21-.08-.4-.2-.55-.35-.16-.15-.28-.33-.37-.53s-.13-.42-.13-.67.04-.46.13-.67.21-.38.37-.53c.16-.15.34-.27.55-.35.21-.08.44-.12.69-.12.28,0,.53.05.76.14.23.1.41.24.57.42l-.48.44c-.11-.13-.23-.22-.37-.28-.13-.06-.28-.09-.44-.09-.15,0-.29.02-.41.07-.13.05-.23.12-.33.21s-.16.2-.21.33c-.05.13-.08.26-.08.42s.03.29.08.42c.05.13.12.23.21.33.09.09.2.16.33.21.13.05.26.07.41.07.16,0,.31-.03.44-.09.13-.06.26-.16.37-.29l.48.44c-.15.19-.34.33-.57.43-.23.1-.48.15-.76.15Z"/>
        <path class="cls-1" d="M84.19,40.06v-2.61h-1.03v-.61h2.8v.61h-1.03v2.61h-.74Z"/>
        <path class="cls-1" d="M85.79,40.06l1.43-3.21h.74l1.44,3.21h-.78l-1.18-2.84h.29l-1.18,2.84h-.76ZM86.5,39.37l.2-.56h1.66l.2.56h-2.06Z"/>
        <path class="cls-1" d="M89.73,40.06v-3.21h1.46c.35,0,.66.07.92.2s.48.32.63.56c.15.24.23.52.23.85s-.08.61-.23.85c-.15.24-.36.43-.63.56s-.57.2-.92.2h-1.46ZM90.47,39.45h.68c.21,0,.4-.04.56-.12.16-.08.28-.2.37-.35.09-.15.13-.33.13-.53s-.04-.38-.13-.53c-.09-.15-.21-.26-.37-.34-.16-.08-.34-.12-.56-.12h-.68v1.99Z"/>
        <path class="cls-1" d="M93.06,40.06l1.43-3.21h.74l1.44,3.21h-.78l-1.18-2.84h.29l-1.18,2.84h-.76ZM93.78,39.37l.2-.56h1.66l.2.56h-2.06Z"/>
        <path class="cls-1" d="M98.3,40.06v-3.21h1.39c.29,0,.54.05.74.14.21.09.37.23.48.4.11.17.17.38.17.62s-.06.45-.17.62c-.11.17-.27.31-.48.4-.21.09-.46.14-.74.14h-.98l.33-.34v1.22h-.74ZM99.05,38.92l-.33-.35h.94c.23,0,.4-.05.51-.15.11-.1.17-.23.17-.41s-.06-.32-.17-.41c-.11-.1-.28-.15-.51-.15h-.94l.33-.35v1.82Z"/>
        <path class="cls-1" d="M101.04,40.06l1.43-3.21h.74l1.44,3.21h-.78l-1.18-2.84h.29l-1.18,2.84h-.76ZM101.76,39.37l.2-.56h1.66l.2.56h-2.06Z"/>
        <path class="cls-1" d="M104.98,40.06v-3.21h1.39c.29,0,.54.05.74.14.21.09.37.23.48.4.11.17.17.38.17.62s-.06.44-.17.62c-.11.17-.27.31-.48.4-.21.09-.46.14-.74.14h-.98l.33-.33v1.22h-.74ZM105.73,38.92l-.33-.35h.94c.23,0,.4-.05.51-.15.11-.1.17-.24.17-.41s-.06-.32-.17-.41c-.11-.1-.28-.15-.51-.15h-.94l.33-.35v1.82ZM107.03,40.06l-.8-1.17h.8l.81,1.17h-.8Z"/>
        <path class="cls-1" d="M107.94,40.06l1.43-3.21h.74l1.44,3.21h-.78l-1.18-2.84h.29l-1.18,2.84h-.76ZM108.66,39.37l.2-.56h1.66l.2.56h-2.06Z"/>
        <path class="cls-1" d="M113.93,40.06h-.74v-3.21h.74v3.21ZM115.45,38.74h-1.57v-.63h1.57v.63ZM115.39,36.84h.74v3.21h-.74v-3.21Z"/>
        <path class="cls-1" d="M118.46,40.11c-.25,0-.49-.04-.71-.12-.22-.08-.4-.2-.56-.35-.16-.15-.28-.33-.37-.53s-.13-.42-.13-.66.04-.46.13-.66.21-.38.37-.53c.16-.15.35-.27.56-.35s.45-.12.7-.12.49.04.7.12c.21.08.4.2.56.35.16.15.28.33.37.53.09.2.13.42.13.66s-.04.46-.13.66c-.09.2-.21.38-.37.53-.16.15-.34.26-.56.35-.21.08-.45.12-.7.12ZM118.46,39.48c.14,0,.28-.02.4-.07.12-.05.23-.12.32-.21.09-.09.16-.2.21-.33.05-.13.08-.26.08-.42s-.03-.29-.08-.42c-.05-.13-.12-.23-.21-.33-.09-.09-.2-.16-.32-.21-.12-.05-.26-.07-.4-.07s-.28.02-.4.07c-.12.05-.23.12-.32.21s-.16.2-.21.33c-.05.13-.08.26-.08.42s.03.29.08.42c.05.13.12.24.21.33.09.09.2.16.32.21.12.05.26.07.4.07Z"/>
        <path class="cls-1" d="M122.34,40.11c-.25,0-.49-.04-.7-.12-.21-.08-.4-.2-.56-.35-.16-.15-.28-.33-.37-.53s-.13-.42-.13-.67.04-.46.13-.67.21-.38.37-.53c.16-.15.35-.27.56-.35.21-.08.45-.12.71-.12.29,0,.54.05.77.14.23.09.42.23.58.41l-.48.44c-.12-.12-.24-.21-.38-.27-.14-.06-.29-.09-.45-.09s-.3.02-.43.07c-.13.05-.24.12-.33.21-.09.09-.17.2-.22.33-.05.13-.08.26-.08.42s.03.29.08.41c.05.13.12.23.22.33.09.09.2.16.33.21.13.05.27.07.42.07s.29-.02.43-.07c.14-.05.28-.13.41-.24l.42.54c-.17.13-.38.23-.61.3s-.46.11-.69.11ZM122.96,39.61v-1.21h.68v1.3l-.68-.1Z"/>
        <path class="cls-1" d="M123.9,40.06l1.43-3.21h.74l1.44,3.21h-.78l-1.18-2.84h.29l-1.18,2.84h-.76ZM124.62,39.37l.2-.56h1.66l.2.56h-2.06Z"/>
        <path class="cls-1" d="M127.85,40.06v-3.21h1.39c.29,0,.54.05.74.14.21.09.37.23.48.4.11.17.17.38.17.62s-.06.44-.17.62c-.11.17-.27.31-.48.4-.21.09-.46.14-.74.14h-.98l.33-.33v1.22h-.74ZM128.59,38.92l-.33-.35h.94c.23,0,.4-.05.51-.15.11-.1.17-.24.17-.41s-.06-.32-.17-.41c-.11-.1-.28-.15-.51-.15h-.94l.33-.35v1.82ZM129.89,40.06l-.8-1.17h.8l.81,1.17h-.8Z"/>
        <path class="cls-1" d="M131.97,39.46h1.75v.6h-2.49v-3.21h2.43v.6h-1.69v2.02ZM131.91,38.14h1.55v.58h-1.55v-.58Z"/>
        <path class="cls-1" d="M135.37,40.11c-.26,0-.5-.03-.74-.1s-.43-.16-.57-.27l.25-.56c.14.1.3.18.49.24.19.06.38.09.57.09.15,0,.27-.01.36-.04.09-.03.16-.07.2-.12.04-.05.06-.11.06-.18,0-.09-.03-.15-.1-.2-.07-.05-.16-.09-.27-.12-.11-.03-.23-.06-.37-.09-.13-.03-.27-.06-.4-.11-.13-.04-.26-.1-.37-.17-.11-.07-.2-.16-.27-.27-.07-.11-.1-.25-.1-.42,0-.18.05-.35.15-.5.1-.15.25-.27.45-.36.2-.09.45-.14.76-.14.2,0,.4.02.6.07.2.05.37.12.52.21l-.23.56c-.15-.09-.3-.15-.45-.19-.15-.04-.3-.06-.44-.06s-.26.02-.35.05c-.09.03-.16.08-.2.13-.04.05-.06.12-.06.19,0,.08.03.15.1.2.07.05.16.09.27.12.11.03.23.06.37.09.13.03.27.07.4.11.13.04.26.09.37.16.11.07.2.16.27.27.07.11.1.25.1.42,0,.18-.05.35-.15.5-.1.15-.25.27-.45.36-.2.09-.45.14-.76.14Z"/>
      </g>
      <g>
        <polygon class="cls-1" points="111.33 12.04 112.41 8.03 113.49 4.01 114.56 0 110.55 0 106.53 0 105.46 4.01 104.38 8.03 103.31 12.04 99.29 12.04 95.28 12.04 91.26 12.04 92.34 8.03 93.41 4.01 94.49 0 90.47 0 86.46 0 85.38 4.01 84.31 8.03 83.23 12.04 82.16 16.06 81.08 20.07 80.01 24.09 78.93 28.1 77.85 32.12 81.87 32.12 85.88 32.12 86.96 28.1 88.03 24.09 89.11 20.07 93.12 20.07 97.14 20.07 101.15 20.07 100.08 24.09 99 28.1 97.93 32.12 101.94 32.12 105.96 32.12 107.03 28.1 108.11 24.09 109.18 20.07 110.26 16.06 111.33 12.04"/>
        <path class="cls-1" d="M62.08,16.06l1.08-4.01.46-1.73c.36-1.35,1.58-2.28,2.98-2.28h13.69l1.08-4.01,1.08-4.01h-20.07c-2.37,0-4.44,1.59-5.05,3.88l-.04.14-1.08,4.01-1.08,4.01-1.08,4.01-1.08,4.01-1.08,4.01-1.08,4.01-.04.14c-.52,1.96.95,3.88,2.98,3.88h20.07l1.08-4.01,1.08-4.01h-12.04c-2.03,0-3.5-1.92-2.98-3.88l.04-.14,1.08-4.01Z"/>
        <path class="cls-1" d="M40.15,8.03h12.04l1.08-4.01,1.08-4.01h-21.72c-1.39,0-2.61.94-2.98,2.28l-.46,1.73-1.08,4.01-1.08,4.01-1.08,4.01-1.08,4.01-1.08,4.01-1.08,4.01-.04.14c-.52,1.96.95,3.88,2.98,3.88h20.07l1.08-4.01,1.08-4.01h-16.06l1.08-4.01h8.03l1.08-4.01,1.08-4.01h-8.03l1.08-4.01h4.01Z"/>
        <polygon class="cls-1" points="25.16 4.01 26.24 0 22.22 0 18.21 0 14.2 0 10.18 0 6.17 0 2.15 0 1.08 4.01 0 8.03 4.01 8.03 8.03 8.03 6.95 12.04 5.88 16.06 4.8 20.07 3.73 24.09 2.65 28.1 1.58 32.12 5.59 32.12 9.6 32.12 10.68 28.1 11.76 24.09 12.83 20.07 13.91 16.06 14.98 12.04 16.06 8.03 20.07 8.03 24.09 8.03 25.16 4.01"/>
      </g>
      <path class="cls-1" d="M138.65,0h-17.71c-1.39,0-2.61.94-2.98,2.28l-.46,1.73-1.08,4.01-1.08,4.01-1.08,4.01-1.08,4.01-1.08,4.01-1.08,4.01-.04.14c-.52,1.96.95,3.88,2.98,3.88h17.71c1.39,0,2.61-.94,2.98-2.28l.46-1.73,1.08-4.01,1.08-4.01,1.08-4.01,1.08-4.01,1.08-4.01,1.08-4.01.04-.14C142.15,1.92,140.68,0,138.65,0ZM124.81,24.09l-.97,1.61s-.03.04-.06.05c-.08.03-.16-.03-.14-.11l.12-1.55.43-5.74h-2.5l6.19-10.32.97-1.61s.03-.04.06-.05c.08-.03.16.03.14.11l-.13,1.55-.52,6h2.5l-6.07,10.06Z"/>
    </g>
  </g>
</svg>