<?xml version="1.0" encoding="UTF-8"?>
<svg id="Capa_2" data-name="Capa 2" xmlns="http://www.w3.org/2000/svg" viewBox="0 0 1713.72 545.81">
  <defs>
    <style>
      .cls-1 {
        fill: #000;
      }

      .cls-1, .cls-2 {
        stroke-width: 0px;
      }

      .cls-2 {
        fill: #cf6;
      }
    </style>
  </defs>
  <g id="Capa_1-2" data-name="Capa 1">
    <g>
      <rect class="cls-1" x="0" width="1713.72" height="545.81" rx="93.18" ry="93.18"/>
      <g>
        <g>
          <path class="cls-2" d="M1273.15,92.74c-38.32,0-64,13.8-74.73,63.62l-26.82,124.93c-11.12,51.35,11.11,74.34,57.48,74.34s67.83-14.18,78.94-66.68l25.3-118.03c11.11-52.12-9.2-78.18-60.17-78.18ZM1268.97,211.19h13.03l-29.32,46.78-25.38,39.16-12.66,19.53c-.12.2-.29.31-.47.31-.53,0-.85-.95-.57-1.67l19.28-49.63,5.03-12.93-1.97-.09-12.22-.55,29.5-103.99h40.28l-24.53,63.08Z"/>
          <path class="cls-2" d="M251.5,242.96h-49.82l-12.26,60.55h59.02l-15.33,48.29h-113.43l54.03-255.23h111.9l-10.35,48.29h-52.12l-11.11,49.44h49.82l-10.35,48.67Z"/>
          <path class="cls-2" d="M255.33,351.8l54.03-255.23h65.91c-3.83,70.51-10.35,165.94-11.11,176.67h2.68c4.22-40.24,18.01-143.71,22.99-167.47l1.92-9.2h55.95l-54.03,255.23h-67.83c4.22-67.06,10.73-166.32,11.5-174.75h-3.07c-4.22,28.36-18.39,139.11-24.53,168.62l-1.15,6.13h-53.27Z"/>
          <path class="cls-2" d="M550.02,242.96h-49.82l-12.26,60.55h59.02l-15.33,48.29h-113.43l54.03-255.23h111.9l-10.35,48.29h-52.12l-11.11,49.44h49.82l-10.35,48.67Z"/>
          <path class="cls-2" d="M636.24,244.11l-22.99,107.69h-59.4l54.03-255.23h70.9c45.99,0,62.47,24.53,53.27,67.06l-3.83,17.63c-5.36,24.91-16.86,37.56-31.42,42.15,14.56,8.81,17.25,22.61,8.81,59.78-6.9,30.27-13.03,58.63-13.8,68.6h-57.87c-1.92-4.6,1.15-22.61,13.41-80.48,5.37-25.29,1.92-27.21-8.05-27.21h-3.07ZM645.82,200.81h4.6c11.5,0,14.56-4.22,18.01-20.31l4.22-21.46c3.07-14.95.77-19.16-10.73-19.16h-3.45l-12.65,60.93Z"/>
          <path class="cls-2" d="M850.84,351.8h-42.54c0-4.22.77-11.88,1.53-17.25-12.26,18.01-29.51,21.08-43.69,21.08-38.32,0-47.9-26.06-39.09-67.45l24.91-118.8c9.58-45.99,25.68-76.64,78.18-76.64,64.38,0,67.83,40.62,60.55,73.2l-2.68,12.26h-60.55l4.98-22.61c2.68-13.03.38-16.86-6.51-16.86-4.98,0-8.43,1.92-11.88,17.63l-29.51,137.96c-3.07,14.18,2.3,15.33,6.13,15.33,5.75,0,9.96-3.83,13.03-18.39l8.05-39.09h-9.58l11.11-48.67h69.36l-31.81,148.31Z"/>
          <path class="cls-2" d="M895.29,351.8l14.18-68.21c1.15-5.37,2.3-14.95,2.3-20.69l-3.45-166.32h60.93c-4.6,30.66-8.43,66.3-14.56,104.24h3.83c8.05-28.36,20.31-68.98,29.89-104.24h61.7l-76.26,172.83c-2.3,5.36-3.07,6.9-4.22,12.26l-15.33,70.13h-59.02Z"/>
          <path class="cls-2" d="M1082.68,269.79l-4.6,21.84c-3.07,15.33-1.15,19.16,4.6,19.16,5.37,0,8.05-4.98,10.73-18.78,3.83-19.16-1.15-31.04-18.01-50.97-22.23-26.44-38.32-44.45-28.74-89.67,8.81-41.39,28.36-58.63,68.21-58.63,61.7,0,63.62,39.85,55.18,77.41l-1.53,6.9h-53.27l4.22-18.39c3.07-13.8,2.3-20.31-4.98-20.31-3.45,0-7.66,1.53-9.96,12.26-4.22,19.93-.77,24.14,15.71,44.45,31.42,38.71,41.39,55.18,32.19,99.64-9.2,44.84-31.81,60.93-74.73,60.93-51.35,0-66.3-27.59-55.18-75.88l2.3-9.96h57.87Z"/>
          <path class="cls-2" d="M1371.62,96.57h110.37l-10.35,48.29h-50.59l-11.11,51.74h46.37l-10.35,48.29h-46.37l-22.23,106.92h-59.78l54.04-255.23Z"/>
          <path class="cls-2" d="M1516.09,144.86h-31.42l10.35-48.29h122.63l-10.35,48.29h-31.81l-43.69,206.94h-59.4l43.69-206.94Z"/>
        </g>
        <polygon class="cls-2" points="963.86 448.98 97.32 448.98 106.32 404.98 972.86 404.98 963.86 448.98"/>
        <polygon class="cls-2" points="1008.97 448.98 979.79 448.98 988.79 404.98 1017.97 404.98 1008.97 448.98"/>
        <polygon class="cls-2" points="1058.4 448.98 1029.22 448.98 1038.22 404.98 1067.4 404.98 1058.4 448.98"/>
        <polygon class="cls-2" points="1107.83 448.98 1078.65 448.98 1087.65 404.98 1116.83 404.98 1107.83 448.98"/>
        <polygon class="cls-2" points="1542.93 449.51 1513.74 449.51 1522.74 405.51 1551.93 405.51 1542.93 449.51"/>
        <g>
          <path class="cls-2" d="M1148.99,449.04c-4.37,0-8.03-.84-10.96-2.53-2.94-1.69-5.01-4.06-6.22-7.12-1.21-3.06-1.42-6.63-.62-10.71l4.87-24.24h12.37l-4.81,24.05c-.33,1.75-.44,3.27-.31,4.56.12,1.29.49,2.37,1.09,3.25.6.87,1.42,1.51,2.44,1.91,1.02.4,2.24.59,3.65.59,1.71,0,3.2-.34,4.47-1.03s2.33-1.79,3.19-3.31c.85-1.52,1.51-3.51,1.97-5.97l4.81-24.05h12.18l-4.94,24.8c-1.29,6.5-3.87,11.42-7.75,14.77-3.87,3.35-9.02,5.03-15.43,5.03Z"/>
          <path class="cls-2" d="M1181.48,448.16l8.75-43.73h10.18l17.68,29.24-4.25-.12,5.81-29.11h12.12l-8.75,43.73h-10.18l-17.62-29.24,4.19.12-5.81,29.11h-12.12Z"/>
          <path class="cls-2" d="M1236.52,448.16l8.75-43.73h12.37l-8.75,43.73h-12.37Z"/>
          <path class="cls-2" d="M1278.69,449.04c-2.5,0-4.89-.2-7.18-.59-2.29-.4-4.37-.96-6.25-1.69-1.87-.73-3.48-1.53-4.81-2.41l4.87-9.25c1.5.92,3.05,1.7,4.65,2.34,1.6.65,3.24,1.14,4.9,1.47s3.33.5,5,.5,2.94-.16,4.06-.47c1.12-.31,1.98-.76,2.56-1.34.58-.58.88-1.27.88-2.06,0-.88-.39-1.57-1.16-2.09-.77-.52-1.78-.97-3.03-1.34-1.25-.37-2.63-.76-4.15-1.16-1.52-.4-3.04-.88-4.56-1.44-1.52-.56-2.91-1.27-4.16-2.12-1.25-.85-2.26-1.95-3.03-3.28-.77-1.33-1.16-2.98-1.16-4.94,0-3.17.85-5.91,2.56-8.25,1.71-2.33,4.13-4.14,7.28-5.43,3.14-1.29,6.86-1.94,11.15-1.94,3.12,0,6.04.32,8.75.97,2.71.65,5.04,1.57,7,2.78l-4.5,9.18c-1.71-1.08-3.59-1.91-5.65-2.47s-4.18-.84-6.34-.84c-1.67,0-3.09.19-4.28.56-1.19.38-2.08.89-2.69,1.53s-.91,1.36-.91,2.16c0,.83.38,1.52,1.12,2.06.75.54,1.76,1,3.03,1.37s2.67.76,4.19,1.16c1.52.4,3.03.85,4.53,1.37,1.5.52,2.89,1.21,4.19,2.06,1.29.85,2.31,1.93,3.06,3.22.75,1.29,1.12,2.9,1.12,4.81,0,3.12-.85,5.85-2.56,8.18-1.71,2.33-4.14,4.15-7.31,5.44-3.17,1.29-6.89,1.94-11.18,1.94Z"/>
          <path class="cls-2" d="M1328.79,449.04c-4.37,0-8.03-.84-10.96-2.53-2.94-1.69-5.01-4.06-6.22-7.12-1.21-3.06-1.42-6.63-.62-10.71l4.87-24.24h12.37l-4.81,24.05c-.33,1.75-.44,3.27-.31,4.56.12,1.29.49,2.37,1.09,3.25.6.87,1.42,1.51,2.44,1.91,1.02.4,2.24.59,3.65.59,1.71,0,3.2-.34,4.47-1.03s2.33-1.79,3.19-3.31c.85-1.52,1.51-3.51,1.97-5.97l4.81-24.05h12.18l-4.94,24.8c-1.29,6.5-3.87,11.42-7.75,14.77-3.87,3.35-9.02,5.03-15.43,5.03Z"/>
          <path class="cls-2" d="M1385.14,449.04c-4.46,0-8.34-.81-11.65-2.44-3.31-1.62-5.86-3.88-7.65-6.78-1.79-2.89-2.69-6.24-2.69-10.03s.67-7.29,2-10.5c1.33-3.21,3.21-5.99,5.62-8.34,2.42-2.35,5.3-4.17,8.65-5.47,3.35-1.29,7.07-1.94,11.15-1.94s7.62.71,10.75,2.12c3.12,1.42,5.46,3.46,7,6.12l-8.93,7.12c-1-1.67-2.3-2.94-3.91-3.81-1.6-.88-3.51-1.31-5.72-1.31s-4.05.38-5.78,1.12c-1.73.75-3.22,1.81-4.47,3.19-1.25,1.38-2.21,2.99-2.87,4.84-.67,1.85-1,3.86-1,6.03,0,1.96.43,3.68,1.28,5.15.85,1.48,2.08,2.62,3.69,3.44,1.6.81,3.51,1.22,5.72,1.22,1.96,0,3.84-.4,5.65-1.19,1.81-.79,3.49-2.08,5.03-3.87l7.31,7.18c-2.46,2.96-5.29,5.05-8.5,6.28-3.21,1.23-6.77,1.84-10.68,1.84Z"/>
          <path class="cls-2" d="M1412.07,448.16l8.75-43.73h18.68c5.62,0,9.96,1.23,13.03,3.69,3.06,2.46,4.59,5.87,4.59,10.25,0,3.67-.89,6.86-2.66,9.59-1.77,2.73-4.28,4.84-7.53,6.34-3.25,1.5-7.08,2.25-11.5,2.25h-14.18l6.56-5.31-3.37,16.93h-12.37ZM1427.5,432.67l-4.31-5.68h12.81c2.75,0,4.87-.65,6.37-1.94,1.5-1.29,2.25-3.12,2.25-5.5,0-1.83-.6-3.19-1.81-4.06-1.21-.87-2.9-1.31-5.06-1.31h-11.93l6.62-5.87-4.94,24.37ZM1439.49,448.16l-8.93-15.93h12.81l9.06,15.93h-12.93Z"/>
          <path class="cls-2" d="M1477.1,438.6h22.93l-2,9.56h-35.05l8.75-43.73h34.24l-1.94,9.56h-22.05l-4.87,24.62ZM1479.67,421.36h20.3l-1.81,9.25h-20.3l1.81-9.25Z"/>
        </g>
      </g>
    </g>
  </g>
</svg>