<svg width="91" height="91" viewBox="0 0 91 91" fill="none" xmlns="http://www.w3.org/2000/svg">
<g id="meter">
<mask id="mask0_1_14" style="mask-type:alpha" maskUnits="userSpaceOnUse" x="0" y="0" width="91" height="91">
<rect id="Bounding box" x="0.0541077" y="0.429169" width="90" height="90" fill="#D9D9D9"/>
</mask>
<g mask="url(#mask0_1_14)">
<path id="readiness_score" d="M27.7104 79.2729C25.4604 79.2104 23.3197 78.6323 21.2885 77.5386C19.2572 76.4448 17.3354 74.8354 15.5229 72.7104C13.0229 69.7104 11.0697 66.1323 9.66348 61.976C8.25723 57.8198 7.55411 53.5542 7.55411 49.1792C7.55411 43.9917 8.53848 39.1167 10.5072 34.5542C12.476 29.9917 15.1479 26.0229 18.5229 22.6479C21.8979 19.2729 25.8666 16.601 30.4291 14.6323C34.9916 12.6635 39.8666 11.6792 45.0541 11.6792C50.2416 11.6792 55.1166 12.6792 59.6791 14.6792C64.2416 16.6792 68.2104 19.3979 71.5854 22.8354C74.9604 26.2729 77.6322 30.3042 79.601 34.9292C81.5697 39.5542 82.5541 44.5229 82.5541 49.8354C82.5541 54.6479 81.7729 59.1479 80.2104 63.3354C78.6479 67.5229 76.4291 71.0542 73.5541 73.9292C71.8041 75.6792 69.9604 77.0073 68.0229 77.9136C66.0854 78.8198 64.1166 79.2729 62.1166 79.2729C60.9916 79.2729 59.8666 79.1323 58.7416 78.8511C57.6166 78.5698 56.4916 78.1479 55.3666 77.5854L50.1166 74.9604C49.3666 74.5854 48.5697 74.3042 47.726 74.1167C46.8822 73.9292 45.9916 73.8354 45.0541 73.8354C44.1166 73.8354 43.226 73.9292 42.3822 74.1167C41.5385 74.3042 40.7416 74.5854 39.9916 74.9604L34.7416 77.5854C33.5541 78.2104 32.3822 78.6636 31.226 78.9448C30.0697 79.2261 28.8979 79.3354 27.7104 79.2729ZM27.8979 71.7729C28.4604 71.7729 29.0385 71.7104 29.6322 71.5854C30.226 71.4604 30.8041 71.2417 31.3666 70.9292L36.6166 68.3042C37.9291 67.6167 39.2885 67.1167 40.6947 66.8042C42.101 66.4917 43.5229 66.3354 44.9604 66.3354C46.3979 66.3354 47.8354 66.4917 49.2729 66.8042C50.7104 67.1167 52.0854 67.6167 53.3979 68.3042L58.7416 70.9292C59.3041 71.2417 59.8666 71.4604 60.4291 71.5854C60.9916 71.7104 61.5541 71.7729 62.1166 71.7729C63.3041 71.7729 64.4291 71.4604 65.4916 70.8354C66.5541 70.2104 67.6166 69.2729 68.6791 68.0229C70.6791 65.6479 72.2416 62.8042 73.3666 59.4917C74.4916 56.1792 75.0541 52.7729 75.0541 49.2729C75.0541 40.8979 72.1479 33.7885 66.3354 27.9448C60.5229 22.101 53.4291 19.1792 45.0541 19.1792C36.6791 19.1792 29.5854 22.1167 23.7729 27.9917C17.9604 33.8667 15.0541 40.9917 15.0541 49.3667C15.0541 52.9292 15.6322 56.3979 16.7885 59.7729C17.9447 63.1479 19.5541 65.9917 21.6166 68.3042C22.6791 69.5542 23.7104 70.4448 24.7104 70.976C25.7104 71.5073 26.7729 71.7729 27.8979 71.7729ZM45.0541 56.6792C47.1166 56.6792 48.8822 55.9448 50.351 54.476C51.8197 53.0073 52.5541 51.2417 52.5541 49.1792C52.5541 48.6792 52.5072 48.1792 52.4135 47.6792C52.3197 47.1792 52.1791 46.6792 51.9916 46.1792L56.6791 39.8979C57.3041 40.7104 57.851 41.5698 58.3197 42.476C58.7885 43.3823 59.1791 44.3667 59.4916 45.4292H67.1791C66.2416 39.9292 63.6947 35.4292 59.5385 31.9292C55.3822 28.4292 50.5541 26.6792 45.0541 26.6792C39.5541 26.6792 34.7104 28.4448 30.5229 31.976C26.3354 35.5073 23.8041 39.9917 22.9291 45.4292H30.6166C31.4916 42.0542 33.2729 39.3354 35.9604 37.2729C38.6479 35.2104 41.6791 34.1792 45.0541 34.1792C46.1166 34.1792 47.1166 34.2729 48.0541 34.4604C48.9916 34.6479 49.8979 34.9292 50.7729 35.3042L45.9916 41.7729C45.8666 41.7729 45.7104 41.7573 45.5229 41.726C45.3354 41.6948 45.1791 41.6792 45.0541 41.6792C42.9916 41.6792 41.226 42.4135 39.7572 43.8823C38.2885 45.351 37.5541 47.1167 37.5541 49.1792C37.5541 51.2417 38.2885 53.0073 39.7572 54.476C41.226 55.9448 42.9916 56.6792 45.0541 56.6792Z" fill="black"/>
</g>
</g>
</svg>
